<?xml version="1.0" encoding="UTF-8"?>
<svg id="a" data-name="Layer_1" xmlns="http://www.w3.org/2000/svg" viewBox="0 0 80 80">
  <defs>
    <style>
      .b {
        fill: #521764;
      }
    </style>
  </defs>
  <path class="b" d="M51.558,23.687c-2.715-9.17-5.232-16.977-1.817-21.315.289-.368.227-.901-.142-1.19-.367-.291-.901-.227-1.189.142-3.881,4.929-1.536,12.489,1.358,22.283.345.016.69.032,1.039.048.249.012.5.022.751.032Z"/>
  <path class="b" d="M28.442,56.313c2.715,9.17,5.236,16.977,1.817,21.315-.289.368-.227.899.142,1.19.367.292.901.227,1.19-.142,3.882-4.929,1.536-12.489-1.357-22.285-.347-.014-.693-.03-1.041-.046-.249-.011-.5-.022-.751-.032Z"/>
  <path class="b" d="M52.442,28.584c-.444-.024-.889-.041-1.338-.065-.148-.006-.301-.013-.453-.018,2.683,9.071,5.11,16.72,1.742,21.021-3.426,4.376-13.251,3.999-22.858,3.563-.149-.006-.302-.014-.454-.02-.446-.023-.891-.041-1.335-.062-10.132-.45-19.517-.665-23.375,4.233-.289.369-.228.901.141,1.191.37.288.9.227,1.189-.142,3.401-4.318,13.051-3.994,22.552-3.564.25.012.501.021.752.034.348.017.692.029,1.038.046,10.258.461,19.793.728,23.684-4.236,3.826-4.886,1.57-12.309-1.285-21.984Z"/>
  <path class="b" d="M75.487,21.57c-.368-.288-.9-.226-1.189.142-3.4,4.318-13.051,3.994-22.552,3.562-.25-.009-.501-.021-.751-.032-.347-.017-.691-.029-1.038-.048-10.258-.459-19.794-.726-23.685,4.238-3.826,4.886-1.57,12.309,1.287,21.984.444.024.889.041,1.335.065.151.007.304.013.454.018-2.684-9.073-5.108-16.72-1.743-21.02,3.428-4.377,13.254-4,22.858-3.564.15.006.302.014.454.021.448.021.891.04,1.335.061,10.134.45,19.517.665,23.375-4.233.289-.369.228-.901-.141-1.191Z"/>
  <path class="b" d="M70.653,20.818l-18.638-14.681c-.37-.288-.433-.823-.144-1.19.29-.367.823-.431,1.19-.141l18.637,14.677c.368.29.435.824.144,1.192-.29.367-.823.431-1.19.142Z"/>
  <path class="b" d="M63.638,23.56l-12.647-9.96c-.367-.288-.433-.822-.143-1.19.29-.366.823-.432,1.191-.141l12.646,9.96c.366.29.43.821.14,1.191-.288.368-.82.43-1.189.14Z"/>
  <path class="b" d="M48.681,48.72l-18.641-14.677c-.368-.29-.433-.824-.142-1.191.288-.368.822-.433,1.19-.143l18.638,14.68c.368.289.431.822.143,1.189-.291.367-.822.43-1.188.142Z"/>
  <path class="b" d="M41.618,51.52l-12.647-9.961c-.366-.288-.43-.821-.141-1.19.289-.366.821-.432,1.189-.143l12.648,9.964c.368.286.432.821.142,1.188-.292.368-.822.431-1.192.142Z"/>
  <path class="b" d="M49.744,41.202l-12.646-9.961c-.366-.29-.432-.822-.141-1.19.289-.368.822-.432,1.19-.141l12.646,9.96c.366.29.432.823.141,1.191-.289.366-.822.429-1.191.141Z"/>
  <path class="b" d="M27.779,75.254l-18.638-14.679c-.367-.288-.432-.823-.141-1.19.29-.366.821-.432,1.187-.142l18.642,14.679c.365.29.429.822.14,1.191-.289.365-.822.431-1.19.14Z"/>
  <path class="b" d="M28.848,67.734l-12.649-9.959c-.367-.29-.43-.821-.142-1.19.291-.368.822-.431,1.19-.141l12.65,9.961c.366.288.431.821.14,1.188-.288.369-.821.434-1.189.141Z"/>
</svg>