<?xml version="1.0" encoding="UTF-8"?>
<svg id="a" data-name="Layer_1" xmlns="http://www.w3.org/2000/svg" viewBox="0 0 80 80">
  <defs>
    <style>
      .b {
        fill: #3ec6e5;
      }
    </style>
  </defs>
  <path class="b" d="M68.767,39.117c-5.602,0-10.16-4.559-10.16-10.161s4.558-10.159,10.16-10.159,10.159,4.558,10.159,10.159-4.558,10.161-10.159,10.161ZM68.767,20.297c-4.775,0-8.66,3.885-8.66,8.659s3.885,8.661,8.66,8.661,8.659-3.886,8.659-8.661-3.884-8.659-8.659-8.659Z"/>
  <path class="b" d="M11.587,22.561c-5.602,0-10.161-4.559-10.161-10.161S5.984,2.241,11.587,2.241s10.16,4.558,10.16,10.159-4.558,10.161-10.16,10.161ZM11.587,3.741C6.811,3.741,2.926,7.626,2.926,12.4s3.885,8.661,8.661,8.661,8.66-3.886,8.66-8.661S16.362,3.741,11.587,3.741Z"/>
  <path class="b" d="M13.166,68.941c-5.602,0-10.161-4.558-10.161-10.16s4.558-10.16,10.161-10.16,10.16,4.558,10.16,10.16-4.558,10.16-10.16,10.16ZM13.166,50.121c-4.775,0-8.661,3.885-8.661,8.66s3.885,8.66,8.661,8.66,8.66-3.885,8.66-8.66-3.885-8.66-8.66-8.66Z"/>
  <path class="b" d="M56.639,76.772c-5.603,0-10.161-4.558-10.161-10.16s4.558-10.16,10.161-10.16,10.16,4.558,10.16,10.16-4.558,10.16-10.16,10.16ZM56.639,57.952c-4.775,0-8.661,3.885-8.661,8.66s3.885,8.66,8.661,8.66,8.66-3.885,8.66-8.66-3.885-8.66-8.66-8.66Z"/>
  <path class="b" d="M52.04,36.208c-.3,0-.584-.182-.699-.479-.15-.386.041-.82.428-.971l4.599-1.787c.383-.148.82.041.971.428.15.386-.041.82-.428.971l-4.599,1.787c-.089.034-.181.051-.271.051Z"/>
  <path class="b" d="M35.385,36.685c-.19,0-.381-.072-.527-.217l-14.283-14.124c-.294-.291-.297-.766-.006-1.06.291-.295.767-.297,1.061-.006l14.283,14.124c.294.291.297.766.006,1.061-.146.148-.34.223-.533.223Z"/>
  <path class="b" d="M23.845,52.151c-.238,0-.472-.113-.618-.323-.235-.341-.15-.809.191-1.044l5.317-3.673c.34-.234.808-.149,1.043.19.235.341.15.809-.191,1.044l-5.317,3.673c-.13.09-.279.133-.426.133Z"/>
  <path class="b" d="M49.496,56.496c-.248,0-.491-.123-.634-.349l-5.077-8.018c-.222-.35-.117-.814.232-1.035.35-.223.812-.118,1.035.232l5.077,8.018c.222.35.117.814-.232,1.035-.125.079-.264.116-.401.116Z"/>
  <g>
    <path class="b" d="M33.224,30.434c1.958-1.322,4.316-2.095,6.851-2.095,6.77,0,12.278,5.508,12.278,12.278,0,3.496-1.476,6.647-3.829,8.886l.793,1.304c2.778-2.522,4.536-6.15,4.536-10.189,0-7.598-6.181-13.778-13.778-13.778-2.951,0-5.681.94-7.925,2.526l1.074,1.068Z"/>
    <path class="b" d="M44.275,52.14c-1.312.48-2.723.756-4.2.756-6.77,0-12.278-5.508-12.278-12.278,0-2.43.718-4.69,1.94-6.599l-1.092-1.087c-1.482,2.197-2.348,4.842-2.348,7.686,0,7.598,6.181,13.778,13.778,13.778,1.763,0,3.443-.345,4.994-.951l-.794-1.305Z"/>
  </g>
</svg>