<?xml version="1.0" encoding="UTF-8"?>
<svg id="a" data-name="Layer_1" xmlns="http://www.w3.org/2000/svg" viewBox="0 0 95.676 80">
  <defs>
    <style>
      .b {
        fill: #2eb67c;
      }
    </style>
  </defs>
  <path class="b" d="M47.406,71c-13.924,0-26.213-9.393-29.883-22.84-4.5-16.487,5.254-33.559,21.739-38.059,2.676-.73,5.428-1.101,8.177-1.101,13.924,0,26.211,9.393,29.883,22.842,2.179,7.984,1.117,16.342-2.988,23.53-4.106,7.188-10.766,12.348-18.753,14.527-2.676.73-5.425,1.101-8.174,1.101ZM47.439,10.829c-2.585,0-5.174.347-7.696,1.035-15.513,4.235-24.69,20.302-20.457,35.815,3.453,12.653,15.018,21.492,28.119,21.492,2.585,0,5.174-.347,7.696-1.035,7.515-2.052,13.78-6.907,17.645-13.67,3.864-6.763,4.864-14.628,2.812-22.143-3.456-12.656-15.018-21.495-28.119-21.495Z"/>
  <path class="b" d="M94.578,25.957c-1.151-4.22-7.448-5.796-19.158-4.805.384.57.747,1.155,1.095,1.751,12.923-.946,15.804,1.722,16.299,3.535.667,2.441-3.388,6.353-10.846,10.463-8.026,4.425-19.152,8.691-31.329,12.015-26.495,7.228-46.428,6.89-47.745,2.061-.561-2.054,1.052-5.484,10.763-10.531-.011-.695.006-1.387.039-2.076C4.18,43.174.045,47.474,1.132,51.459c.944,3.46,6.458,4.909,14.287,4.909,9.766,0,23.131-2.258,35.702-5.688,12.313-3.36,23.582-7.684,31.73-12.175,6.007-3.313,12.919-8.179,11.726-12.548Z"/>
</svg>