<?xml version="1.0" encoding="UTF-8"?>
<svg id="a" data-name="Layer_1" xmlns="http://www.w3.org/2000/svg" viewBox="0 0 86.481 80">
  <defs>
    <style>
      .b {
        fill: #edbf00;
      }
    </style>
  </defs>
  <path class="b" d="M84.309,34.711h-19.724V4.811c0-.447-.363-.811-.811-.811h-20.535c-.448,0-.811.363-.811.811v12.441h-19.724c-.448,0-.811.363-.811.811v25.859H2.171c-.448,0-.811.363-.811.811v30.457c0,.447.363.811.811.811h82.138c.448,0,.811-.363.811-.811v-39.668c0-.447-.363-.811-.811-.811ZM2.982,45.543h18.913v28.836H2.982v-28.836ZM23.516,44.733v-25.859h18.913v55.506h-18.913v-29.646ZM44.051,18.063V5.621h18.913v68.758h-18.913V18.063ZM83.499,74.379h-18.913v-38.047h18.913v38.047Z"/>
</svg>