<?xml version="1.0" encoding="UTF-8"?>
<svg id="a" data-name="Layer_1" xmlns="http://www.w3.org/2000/svg" viewBox="0 0 91.06 80">
  <defs>
    <style>
      .b {
        fill: #e23d79;
      }
    </style>
  </defs>
  <path class="b" d="M82.355,73c-.008-.002-.015,0-.023,0H8.073c-.307,0-.591-.163-.744-.43-.154-.266-.154-.593,0-.859L44.458,7.4c.307-.533,1.182-.533,1.488,0l37.044,64.161c.139.152.224.356.224.58,0,.475-.385.859-.859.859ZM9.562,71.282h71.283L45.203,9.549,9.562,71.282Z"/>
  <path class="b" d="M61.727,45.024H28.685c-.475,0-.859-.385-.859-.859s.385-.859.859-.859h33.042c.474,0,.859.385.859.859s-.385.859-.859.859Z"/>
  <path class="b" d="M28.496,45.024c-.366,0-.705-.235-.82-.602-.142-.452.11-.936.563-1.077l28.213-8.836c.454-.143.935.11,1.077.564.142.452-.11.936-.563,1.076l-28.213,8.836c-.086.027-.172.038-.257.038Z"/>
  <path class="b" d="M1.868,53.437c-.366,0-.705-.235-.82-.602-.142-.454.11-.936.563-1.079l3.28-1.027c.452-.143.934.112,1.077.564.142.452-.11.936-.563,1.076l-3.28,1.027c-.086.027-.172.04-.257.04ZM9.523,51.04c-.366,0-.705-.235-.82-.604-.142-.452.111-.933.564-1.076l3.281-1.025c.456-.141.935.11,1.076.564.142.452-.111.933-.564,1.077l-3.28,1.025c-.086.027-.172.04-.257.04ZM17.178,48.643c-.366,0-.705-.235-.82-.602-.142-.452.111-.936.563-1.077l2.123-.665c.452-.143.934.11,1.077.564.142.452-.111.933-.563,1.077l-2.123.665c-.086.027-.172.038-.257.038Z"/>
  <g>
    <path class="b" d="M66.047,35.499h-1.719c-.475,0-.859-.385-.859-.859s.385-.859.859-.859h1.719c.474,0,.859.385.859.859s-.385.859-.859.859Z"/>
    <path class="b" d="M82.712,35.499h-3.571c-.474,0-.859-.385-.859-.859s.385-.859.859-.859h3.571c.474,0,.859.385.859.859s-.385.859-.859.859ZM74.38,35.499h-3.571c-.475,0-.859-.385-.859-.859s.385-.859.859-.859h3.571c.474,0,.859.385.859.859s-.385.859-.859.859Z"/>
    <path class="b" d="M89.192,35.499h-1.719c-.474,0-.859-.385-.859-.859s.385-.859.859-.859h1.719c.475,0,.859.385.859.859s-.385.859-.859.859Z"/>
  </g>
  <g>
    <path class="b" d="M65.939,36.623c-.165,0-.331-.047-.477-.145l-1.429-.956c-.395-.262-.5-.797-.237-1.191.264-.394.799-.501,1.192-.237l1.429.956c.395.264.5.797.237,1.193-.166.246-.438.38-.715.38Z"/>
    <path class="b" d="M84.222,48.847c-.164,0-.33-.047-.477-.145l-2.612-1.746c-.395-.264-.501-.797-.237-1.193.264-.394.799-.497,1.192-.237l2.612,1.746c.395.264.501.799.237,1.193-.166.248-.438.383-.715.383ZM78.127,44.772c-.165,0-.331-.047-.477-.146l-2.612-1.746c-.395-.264-.5-.797-.237-1.193.264-.394.798-.501,1.192-.235l2.612,1.746c.394.264.5.797.237,1.193-.166.246-.438.381-.715.381ZM72.033,40.698c-.164,0-.331-.047-.477-.146l-2.612-1.748c-.394-.262-.5-.797-.237-1.191.264-.394.799-.501,1.192-.237l2.612,1.748c.394.262.5.797.237,1.191-.166.248-.438.383-.715.383Z"/>
    <path class="b" d="M89.134,52.13c-.165,0-.331-.047-.477-.145l-1.429-.956c-.395-.262-.5-.797-.237-1.191.264-.396.799-.501,1.192-.237l1.429.956c.395.264.5.797.237,1.193-.166.246-.438.38-.715.38Z"/>
  </g>
</svg>